HIERARCHY
ROOT Hips
{
  OFFSET 0.000000 0.000000 0.000000
  CHANNELS 6 Xposition Yposition Zposition Xrotation Yrotation Zrotation
  JOINT Spine
  {
    OFFSET 0.384862 23.362435 -6.545746
    CHANNELS 3 Xrotation Yrotation Zrotation
    JOINT Chest
    {
      OFFSET 0.384862 23.362435 -6.545746
      CHANNELS 3 Xrotation Yrotation Zrotation
      JOINT Neck
      {
        OFFSET -0.726359 3.494450 -9.275600
        CHANNELS 3 Xrotation Yrotation Zrotation
        JOINT Head
        {
          OFFSET -0.827274 3.104519 -12.830805
          CHANNELS 3 Xrotation Yrotation Zrotation
          End Site
          {
            OFFSET -0.248182 0.931356 -3.849242
          }
        }
      }
      JOINT LeftCollar
      {
        OFFSET 3.000000 4.000000 0.000000
        CHANNELS 3 Xrotation Yrotation Zrotation
        JOINT LeftShoulder
        {
          OFFSET 16.753096 -1.874518 -2.350806
          CHANNELS 3 Xrotation Yrotation Zrotation
          JOINT LeftArm
          {
            OFFSET 9.215470 -17.927143 -6.750691
            CHANNELS 3 Xrotation Yrotation Zrotation
            JOINT LeftForeArm
            {
              OFFSET -8.631796 -1.807562 -13.626102
              CHANNELS 3 Xrotation Yrotation Zrotation
              JOINT LeftHand
              {
                OFFSET -3.581741 1.574515 -2.219805
                CHANNELS 3 Xrotation Yrotation Zrotation
                End Site
                {
                  OFFSET -1.074522 0.472355 -0.665942
                }
              }
            }
          }
        }
      }
      JOINT RightCollar
      {
        OFFSET -3.000000 4.000000 0.000000
        CHANNELS 3 Xrotation Yrotation Zrotation
        JOINT RightShoulder
        {
          OFFSET -16.753096 1.874518 2.350806
          CHANNELS 3 Xrotation Yrotation Zrotation
          JOINT RightArm
          {
            OFFSET -4.024878 -26.092607 -12.467419
            CHANNELS 3 Xrotation Yrotation Zrotation
            JOINT RightForeArm
            {
              OFFSET 6.746233 1.826222 -21.720462
              CHANNELS 3 Xrotation Yrotation Zrotation
              JOINT RightHand
              {
                OFFSET 4.773503 3.298478 -5.155945
                CHANNELS 3 Xrotation Yrotation Zrotation
                End Site
                {
                  OFFSET 1.432051 0.989543 -1.546783
                }
              }
            }
          }
        }
      }
    }
  }
  JOINT LeftUpLeg
  {
    OFFSET 9.108096 0.180174 1.189578
    CHANNELS 3 Xrotation Yrotation Zrotation
    JOINT LeftLeg
    {
      OFFSET 8.006705 -41.225060 -10.059709
      CHANNELS 3 Xrotation Yrotation Zrotation
      JOINT LeftFoot
      {
        OFFSET 4.362087 -38.764367 9.241715
        CHANNELS 3 Xrotation Yrotation Zrotation
        End Site
        {
          OFFSET 1.308626 -11.629310 2.772515
        }
      }
    }
  }
  JOINT RightUpLeg
  {
    OFFSET -9.108096 -0.180174 -1.189578
    CHANNELS 3 Xrotation Yrotation Zrotation
    JOINT RightLeg
    {
      OFFSET -2.107032 -32.214779 1.747249
      CHANNELS 3 Xrotation Yrotation Zrotation
      JOINT RightFoot
      {
        OFFSET -6.367369 -42.204761 13.125504
        CHANNELS 3 Xrotation Yrotation Zrotation
        End Site
        {
          OFFSET -1.910211 -12.661428 3.937651
        }
      }
    }
  }
}
MOTION
Frames: 11
Frame Time: 0.083333
1.251348 59.983048 -0.318912 2.004902 -0.038183 -0.026444 0.000000 0.000000 0.000000 -1.395780 -0.083613 -0.070513 -0.065135 -0.102192 0.001891 176.495729 2.427558 -19.219278 -0.748789 -1.007724 -0.051039 1.808685 1.867444 0.708607 0.637652 -1.020733 -0.903139 0.000000 0.000000 0.000000 0.000000 0.000000 0.000000 -0.748789 -1.007724 -0.051039 0.935899 1.256356 -0.112954 0.839362 0.229222 0.313519 0.000000 0.000000 0.000000 0.000000 0.000000 0.000000 -2.296203 -0.075635 0.103808 -1.108631 0.061881 0.390064 0.000000 0.000000 0.000000 6.666945 -0.516417 -0.258959 -22.114201 1.621731 -1.608488 0.000000 0.000000 0.000000
2.573096 60.050878 -1.194191 2.056406 -0.040102 -0.032302 0.000000 0.000000 0.000000 -1.440500 -0.094805 -0.070203 -0.066113 -0.104406 0.003256 176.306506 2.299173 -19.175262 -0.759315 -1.024090 -0.057648 1.561461 1.522380 0.926341 0.869706 -0.805901 -1.089004 0.000000 0.000000 0.000000 0.000000 0.000000 0.000000 -0.759315 -1.024090 -0.057648 0.902680 1.170129 -0.206115 0.662131 0.165298 0.429928 0.000000 0.000000 0.000000 0.000000 0.000000 0.000000 -2.424983 -0.068496 0.120070 -0.909652 0.120019 0.532437 0.000000 0.000000 0.000000 6.117196 -0.493657 -0.292069 -21.304413 1.544418 -1.601280 0.000000 0.000000 0.000000
5.011657 60.670246 -2.401600 2.059129 -0.040177 -0.032547 0.000000 0.000000 0.000000 -1.442817 -0.095379 -0.070252 -0.066203 -0.104567 0.003319 178.410141 3.957732 -18.325180 -0.759904 -1.024935 -0.058433 3.829523 3.615678 3.247693 3.029497 -1.792759 -3.543409 0.000000 0.000000 0.000000 0.000000 0.000000 0.000000 -0.759904 -1.024935 -0.058433 2.554938 3.335213 -0.896251 1.267715 0.208631 1.658294 0.000000 0.000000 0.000000 0.000000 0.000000 0.000000 -7.249731 -0.216830 0.611608 -2.062502 0.630032 2.044001 0.000000 0.000000 0.000000 0.281698 -0.314846 -1.210788 -18.013882 0.603164 -1.500761 0.000000 0.000000 0.000000
7.503401 62.975149 -0.795173 6.190176 -0.134273 -0.176624 0.000000 0.000000 0.000000 -4.630254 -0.428112 -0.168205 -0.172347 -0.282164 0.034161 178.187010 6.164798 -17.215606 -1.943381 -2.457276 -0.282495 4.167265 4.406189 6.130912 6.200528 -1.791285 -5.838232 0.000000 0.000000 0.000000 0.000000 0.000000 0.000000 -1.943381 -2.457276 -0.282495 3.939350 5.669078 -1.970047 0.487643 -0.444381 3.729619 0.000000 0.000000 0.000000 0.000000 0.000000 0.000000 -11.513033 -0.506062 2.197947 -1.916700 1.754438 3.767388 0.000000 0.000000 0.000000 -5.576410 -0.106910 -2.543077 -13.781764 -0.606789 -0.725558 0.000000 0.000000 0.000000
9.671864 64.965798 3.271541 10.123319 -0.265633 -0.575634 0.000000 0.000000 0.000000 -8.226441 -1.238644 -0.163193 -0.238663 -0.430218 0.134852 176.573586 11.470633 -16.164127 -2.479236 -2.986005 -0.952072 3.820565 7.168023 7.403522 10.362599 -2.698155 -5.559099 0.000000 0.000000 0.000000 0.000000 0.000000 0.000000 -2.479236 -2.986005 -0.952072 5.274386 9.259912 -1.988144 0.516918 -1.224572 5.593718 0.000000 0.000000 0.000000 0.000000 0.000000 0.000000 -13.302401 -0.985091 5.242328 -2.639197 2.770256 2.942623 0.000000 0.000000 0.000000 -4.910476 -0.112836 -4.293506 -18.408990 -1.716994 0.578863 0.000000 0.000000 0.000000
11.032640 65.270614 6.509035 12.661563 -0.386615 -1.152799 0.000000 0.000000 0.000000 -10.456275 -2.460897 -0.157687 -0.353955 -0.697014 0.269838 175.203035 17.136106 -15.311223 -3.091146 -4.384175 -2.379364 2.114308 9.314773 7.663743 19.168900 -3.082083 -4.210385 0.000000 0.000000 0.000000 0.000000 0.000000 0.000000 -3.091146 -4.384175 -2.379364 5.881944 11.485388 -0.062201 3.021667 -1.303918 5.964620 0.000000 0.000000 0.000000 0.000000 0.000000 0.000000 -12.919029 -0.780200 7.276712 -4.935361 2.570534 0.210062 0.000000 0.000000 0.000000 -5.743654 -0.236639 -6.791962 -22.003451 -3.226433 1.951613 0.000000 0.000000 0.000000
11.293871 64.683897 7.023736 15.682374 -0.478662 -1.645689 0.000000 0.000000 0.000000 -12.584905 -3.499731 -0.257155 -0.533780 -1.093451 0.356791 174.516085 18.798365 -15.249824 -4.171030 -5.416555 -4.018103 2.074501 11.612744 3.805929 24.287209 -3.262327 -0.266346 0.000000 0.000000 0.000000 0.000000 0.000000 0.000000 -4.171030 -5.416555 -4.018103 4.670694 10.447963 3.460177 5.880657 -0.944337 2.897698 0.000000 0.000000 0.000000 0.000000 0.000000 0.000000 -6.463768 0.581573 7.060003 -8.319475 1.951120 2.084882 0.000000 0.000000 0.000000 -11.954469 -0.865551 -10.662371 -16.412426 -2.568288 8.111706 0.000000 0.000000 0.000000
10.928274 63.976105 6.295324 14.782207 -0.614604 -2.592093 0.000000 0.000000 0.000000 -11.268097 -4.091203 0.354663 -0.580148 -1.183841 0.441070 172.924406 15.957516 -14.144027 -4.523643 -5.328551 -4.002404 1.637398 13.389383 -0.134550 28.425206 -3.146939 4.263134 0.000000 0.000000 0.000000 0.000000 0.000000 0.000000 -4.523643 -5.328551 -4.002404 3.155552 9.801210 5.546002 6.951332 -1.267419 1.491320 0.000000 0.000000 0.000000 0.000000 0.000000 0.000000 -4.608792 1.112518 8.140590 -5.742286 1.603797 2.769154 0.000000 0.000000 0.000000 -20.581021 -2.098479 -12.836786 -7.814401 0.309150 14.731658 0.000000 0.000000 0.000000
10.080007 62.699726 5.218695 14.339120 -0.845254 -4.105137 0.000000 0.000000 0.000000 -11.129605 -4.147240 1.978435 -0.770081 -0.922892 0.579219 169.545136 14.516670 -12.331312 -4.166413 -5.201878 -4.701038 3.656690 13.772532 0.700279 25.413233 -4.836905 4.312983 0.000000 0.000000 0.000000 0.000000 0.000000 0.000000 -4.166413 -5.201878 -4.701038 3.078014 9.601635 4.680206 4.887095 -1.494802 2.965779 0.000000 0.000000 0.000000 0.000000 0.000000 0.000000 -5.569409 0.845329 9.112085 -5.543569 1.792043 2.905580 0.000000 0.000000 0.000000 -20.672371 -2.409515 -11.673238 -4.230657 1.244565 14.809556 0.000000 0.000000 0.000000
9.241838 61.406797 4.729849 13.342343 -1.029391 -5.137080 0.000000 0.000000 0.000000 -10.761713 -3.680962 3.369878 -0.981240 -0.847056 0.573573 168.942839 8.456339 -12.502447 -3.547372 -4.615243 -5.608841 6.252633 10.551749 2.171094 18.350708 -6.335318 2.932353 0.000000 0.000000 0.000000 0.000000 0.000000 0.000000 -3.547372 -4.615243 -5.608841 2.940584 6.616402 2.378348 5.334389 -1.314545 5.088488 0.000000 0.000000 0.000000 0.000000 0.000000 0.000000 -5.186494 0.768157 9.480581 -4.560652 2.093665 3.791287 0.000000 0.000000 0.000000 -22.893315 -2.997136 -11.578820 0.683762 2.588731 14.354456 0.000000 0.000000 0.000000
8.646628 60.551572 5.188993 11.915253 -1.129359 -5.500498 0.000000 0.000000 0.000000 -9.986832 -2.490504 4.343536 -0.995097 -0.512125 0.459090 171.027993 2.847109 -14.617287 -2.859462 -1.736606 -5.675272 7.063739 5.622241 4.243535 11.375883 -6.383675 -0.024613 0.000000 0.000000 0.000000 0.000000 0.000000 0.000000 -2.859462 -1.736606 -5.675272 0.881322 3.394401 0.049038 7.500047 -0.198325 6.505125 0.000000 0.000000 0.000000 0.000000 0.000000 0.000000 -2.672552 0.945676 9.225230 -7.618416 2.734771 4.725420 0.000000 0.000000 0.000000 -20.941347 -2.648339 -13.674226 -0.480334 1.804109 14.948694 0.000000 0.000000 0.000000
